<?xml version="1.0" standalone="no"?>
<!DOCTYPE svg PUBLIC "-//W3C//DTD SVG 20010904//EN"
 "http://www.w3.org/TR/2001/REC-SVG-20010904/DTD/svg10.dtd">
<svg version="1.0" xmlns="http://www.w3.org/2000/svg"
 width="225.000000pt" height="225.000000pt" viewBox="0 0 225.000000 225.000000"
 preserveAspectRatio="xMidYMid meet">
<metadata>
Created by potrace 1.16, written by Peter Selinger 2001-2019
</metadata>
<g transform="translate(0.000000,225.000000) scale(0.100000,-0.100000)"
fill="#000000" stroke="none">
<path d="M715 1753 c-32 -9 -65 -34 -81 -64 -12 -23 -14 -116 -14 -564 0 -584
-1 -572 57 -611 26 -18 52 -19 448 -19 400 0 421 1 449 20 54 37 56 49 56 472
l0 388 -193 193 -192 192 -255 -1 c-140 -1 -264 -4 -275 -6z m815 -435 c0 -5
-76 -8 -170 -8 l-170 0 0 177 0 178 170 -170 c94 -93 170 -173 170 -177z
m-340 -223 l0 -95 95 0 95 0 0 -65 0 -65 -95 0 -95 0 0 -95 0 -95 -65 0 -65 0
0 95 0 95 -95 0 -95 0 0 65 0 65 95 0 95 0 0 95 0 95 65 0 65 0 0 -95z"/>
</g>
</svg>
